<?xml version="1.0" encoding="UTF-8"?>
<svg width="123px" height="30px" viewBox="0 0 123 30" version="1.1" xmlns="http://www.w3.org/2000/svg" xmlns:xlink="http://www.w3.org/1999/xlink">
    <title>73507C10-6715-4FA1-A393-73B142B73FDE@1x</title>
    <g id="Overviews--✅" stroke="none" stroke-width="1" fill="none" fill-rule="evenodd">
        <g id="Header/-Logo" transform="translate(-299.000000, -3017.000000)" fill="#FDFDFD" fill-rule="nonzero">
            <g id="Group" transform="translate(295.000000, 3014.000000)">
                <g id="Gif&amp;Flip-2" transform="translate(4.000000, 3.807063)">
                    <path d="M11.1676313,21.8529417 C12.7389563,21.8529417 14.2541625,21.6822917 15.71325,21.3409919 C17.1723375,20.999692 18.4630688,20.6242622 19.5854438,20.2147024 C19.4732063,19.9611654 19.3937047,19.7271312 19.3469391,19.5125998 C19.3001734,19.2980685 19.2767906,18.9470172 19.2767906,18.459446 L19.2767906,18.459446 L19.2767906,15.5047645 C19.2767906,14.7831591 19.4451469,14.2175765 19.7818594,13.8080167 C20.1185719,13.3984569 20.7358781,13.1449198 21.6337781,13.0474056 C21.6898969,13.0474056 21.7413391,12.9645185 21.7881047,12.7987443 C21.8348703,12.6329701 21.8582531,12.5013258 21.8582531,12.4038116 C21.8582531,12.2867945 21.8348703,12.1502746 21.7881047,11.9942518 C21.7413391,11.838229 21.6898969,11.7602176 21.6337781,11.7602176 C20.7171719,11.7602176 19.7725063,11.7894719 18.7997813,11.8479804 C17.8270563,11.906489 16.91045,11.9357432 16.0499625,11.9357432 C15.2081813,11.9357432 14.441225,11.906489 13.7490938,11.8479804 C13.0569625,11.7894719 12.2525938,11.7602176 11.3359875,11.7602176 C11.2798688,11.7602176 11.2284266,11.8333533 11.1816609,11.9796246 C11.1348953,12.125896 11.1115125,12.2672917 11.1115125,12.4038116 C11.1115125,12.5403315 11.1348953,12.6866029 11.1816609,12.8426257 C11.2284266,12.9986485 11.2798688,13.0766599 11.3359875,13.0766599 C12.495775,13.2131798 13.244025,13.4179597 13.5807375,13.6909996 C13.91745,13.9640395 14.0858063,14.4321078 14.0858063,15.0952047 L14.0858063,15.0952047 L14.0858063,18.5764631 C14.0858063,19.2005543 13.8847141,19.6686226 13.4825297,19.9806682 C13.0803453,20.2927138 12.3087125,20.4487366 11.1676313,20.4487366 C9.48406875,20.4487366 8.16527813,19.5857355 7.21125938,17.8597334 C6.25724063,16.1337314 5.78023125,13.954288 5.78023125,11.3214035 C5.78023125,8.59100473 6.27127031,6.35792859 7.25334844,4.62217508 C8.23542656,2.88642157 9.56824688,2.01854481 11.2518094,2.01854481 C12.8044281,2.01854481 14.1372484,2.58412742 15.2502703,3.71529262 C16.3632922,4.84645783 17.134925,6.22140865 17.5651688,7.84014507 C17.6025813,7.91815646 17.6727297,7.976665 17.7756141,8.0156707 C17.8784984,8.0546764 17.9954125,8.07417925 18.1263563,8.07417925 C18.2573,8.07417925 18.4022734,8.04980069 18.5612766,8.00104356 C18.7202797,7.95228644 18.7997813,7.89865361 18.7997813,7.84014507 C18.781075,6.98201973 18.7530156,5.92399021 18.7156031,4.66605648 C18.6781906,3.40812276 18.6594844,2.37934751 18.6594844,1.57973072 C17.7989969,1.57973072 16.7795063,1.41395651 15.6010125,1.08240809 C14.4225188,0.750859664 13.2907906,0.585085453 12.2058281,0.585085453 C10.2977906,0.585085453 8.56278594,0.872752467 7.00081406,1.4480865 C5.43884219,2.02342052 4.14343438,2.80841017 3.11459063,3.80305544 C2.06704063,4.83670641 1.28605469,5.98249875 0.771632813,7.24043248 C0.257210938,8.4983662 7.64721619e-14,9.85868988 7.64721619e-14,11.3214035 C7.64721619e-14,12.6866029 0.233828125,14.0030452 0.701484375,15.2707303 C1.16914063,16.5384155 1.86127188,17.6500778 2.77787813,18.6057174 C3.71319063,19.6003627 4.89168438,20.390228 6.31335938,20.9753135 C7.73503438,21.5603989 9.353125,21.8529417 11.1676313,21.8529417 Z M26.8528219,5.67532889 C27.5449531,5.67532889 28.1435531,5.41204044 28.6486219,4.88546353 C29.1536906,4.35888662 29.406225,3.72504405 29.406225,2.98393581 C29.406225,2.26233042 29.1536906,1.63823927 28.6486219,1.11166236 C28.1435531,0.585085453 27.5449531,0.321796999 26.8528219,0.321796999 C26.1606906,0.321796999 25.5620906,0.585085453 25.0570219,1.11166236 C24.5519531,1.63823927 24.2994188,2.26233042 24.2994188,2.98393581 C24.2994188,3.72504405 24.5519531,4.35888662 25.0570219,4.88546353 C25.5620906,5.41204044 26.1606906,5.67532889 26.8528219,5.67532889 Z M31.2862031,21.3848733 C31.3423219,21.3848733 31.3937641,21.3068619 31.4405297,21.1508391 C31.4872953,20.9948163 31.5106781,20.8582964 31.5106781,20.7412793 C31.5106781,20.6437651 31.4872953,20.5121208 31.4405297,20.3463466 C31.3937641,20.1805724 31.3423219,20.0976853 31.2862031,20.0976853 C30.6127781,20.0391768 30.1264156,19.8441483 29.8271156,19.5125998 C29.5278156,19.1810514 29.3781656,18.5569603 29.3781656,17.6403264 L29.3781656,17.6403264 L29.3781656,13.0474056 C29.3781656,12.3843087 29.406225,11.5651891 29.4623438,10.5900467 C29.5184625,9.61490427 29.5652281,8.78603321 29.6026406,8.10343352 C29.6213469,8.00591928 29.5792578,7.91815646 29.4763734,7.84014507 C29.3734891,7.76213367 29.2098094,7.72312797 28.9853344,7.72312797 C28.8918031,7.72312797 28.7795656,7.75238225 28.6486219,7.81089079 C28.5176781,7.86939934 28.4241469,7.91815646 28.3680281,7.95716216 C27.7507219,8.26920773 26.8808813,8.64463756 25.7585063,9.08345165 C24.6361313,9.52226574 23.6259938,9.83918703 22.7280938,10.0342155 C22.671975,10.0342155 22.6205328,10.1122269 22.5737672,10.2682497 C22.5270016,10.4242725 22.5036188,10.551041 22.5036188,10.6485552 C22.5036188,10.7460695 22.5270016,10.8679623 22.5737672,11.0142336 C22.6205328,11.160505 22.671975,11.2433921 22.7280938,11.262895 C23.420225,11.3409064 23.9112641,11.4969291 24.2012109,11.7309633 C24.4911578,11.9649975 24.6361313,12.4720716 24.6361313,13.2521855 L24.6361313,13.2521855 L24.6361313,17.6403264 C24.6361313,18.5764631 24.4911578,19.2005543 24.2012109,19.5125998 C23.9112641,19.8246454 23.420225,20.0196739 22.7280938,20.0976853 C22.671975,20.1171881 22.6205328,20.204951 22.5737672,20.3609738 C22.5270016,20.5169965 22.5036188,20.6437651 22.5036188,20.7412793 C22.5036188,20.8582964 22.5270016,20.9948163 22.5737672,21.1508391 C22.6205328,21.3068619 22.671975,21.3848733 22.7280938,21.3848733 C23.2892813,21.3848733 23.9533531,21.3604947 24.7203094,21.3117376 C25.4872656,21.2629805 26.18875,21.2386019 26.8247625,21.2386019 C27.4794813,21.2386019 28.2417609,21.2629805 29.1116016,21.3117376 C29.9814422,21.3604947 30.7063094,21.3848733 31.2862031,21.3848733 Z M40.9666875,21.3848733 C41.0228063,21.3848733 41.0742484,21.3117376 41.1210141,21.1654662 C41.1677797,21.0191949 41.1911625,20.8777992 41.1911625,20.7412793 C41.1911625,20.6437651 41.1677797,20.5121208 41.1210141,20.3463466 C41.0742484,20.1805724 41.0228063,20.0976853 40.9666875,20.0976853 C40.1623188,20.0196739 39.6104844,19.8246454 39.3111844,19.5125998 C39.0118844,19.2005543 38.8622344,18.5764631 38.8622344,17.6403264 L38.8622344,17.6403264 L38.8622344,10.5315381 L42.0329438,10.6485552 C42.126475,10.6680581 42.2059766,10.551041 42.2714484,10.297504 C42.3369203,10.0439669 42.3696563,9.81968418 42.3696563,9.6246557 C42.3696563,9.41012436 42.3415969,9.18584161 42.2854781,8.95180743 C42.2293594,8.71777324 42.1451813,8.60075615 42.0329438,8.60075615 L42.0329438,8.60075615 L38.8902938,8.60075615 L38.8904514,5.78088121 C38.8961282,4.00862352 39.0550788,2.98366986 39.3673031,2.70602022 C39.6853094,2.42322892 40.0687875,2.28183327 40.5177375,2.28183327 C40.779625,2.28183327 41.0181297,2.45248319 41.2332516,2.79378304 C41.4483734,3.13508288 41.6401125,3.48125844 41.8084688,3.83230971 C42.0142375,4.22236668 42.2667719,4.57341795 42.5660719,4.88546353 C42.8653719,5.1975091 43.2675563,5.35353189 43.772625,5.35353189 C44.4647563,5.35353189 44.9885313,5.13412485 45.34395,4.69531076 C45.6993688,4.25649667 45.8770781,3.75429832 45.8770781,3.18871572 C45.8770781,2.33059039 45.5169828,1.60410928 44.7967922,1.00927241 C44.0766016,0.414435529 43.0150219,0.117017091 41.6120531,0.117017091 C39.8536656,0.117017091 38.16075,0.911758164 36.5333063,2.50124031 C34.9058625,4.09072246 34.0921406,6.04588301 34.0921406,8.36672197 C34.0921406,8.52274476 33.8489594,8.67876755 33.3625969,8.83479034 C32.8762344,8.99081312 32.4834031,9.10783021 32.1841031,9.18584161 C32.1279844,9.20534446 32.0718656,9.3028587 32.0157469,9.47838433 C31.9596281,9.65390997 31.9315688,9.78067848 31.9315688,9.85868988 C31.9315688,9.93670127 31.9596281,10.0585941 32.0157469,10.2243683 C32.0718656,10.3901425 32.1373375,10.4730296 32.2121625,10.4730296 L32.2121625,10.4730296 L33.7554281,10.4730296 C33.8676656,10.4730296 33.9518438,10.516911 34.0079625,10.6046738 C34.0640813,10.6924366 34.0921406,10.7850752 34.0921406,10.8825894 L34.0921406,10.8825894 L34.0921406,17.6403264 C34.0921406,18.6154688 33.9845797,19.2444357 33.7694578,19.527227 C33.5543359,19.8100183 33.0258844,20.0001711 32.1841031,20.0976853 C32.1279844,20.1171881 32.0765422,20.204951 32.0297766,20.3609738 C31.9830109,20.5169965 31.9596281,20.6437651 31.9596281,20.7412793 C31.9596281,20.8582964 31.9830109,20.9948163 32.0297766,21.1508391 C32.0765422,21.3068619 32.1279844,21.3848733 32.1841031,21.3848733 C32.7639969,21.3848733 33.4608047,21.3604947 34.2745266,21.3117376 C35.0882484,21.2629805 35.8224688,21.2386019 36.4771875,21.2386019 C37.1319063,21.2386019 37.8988625,21.2629805 38.7780563,21.3117376 C39.65725,21.3604947 40.3867938,21.3848733 40.9666875,21.3848733 Z M61.1694375,21.9114502 C62.1982813,21.9114502 63.1897125,21.7017946 64.1437313,21.2824833 C65.09775,20.8631721 65.8179406,20.3317195 66.3043031,19.6881255 C66.3604219,19.6491198 66.3604219,19.5467298 66.3043031,19.3809556 C66.2481844,19.2151814 66.2014188,19.0932886 66.1640063,19.0152772 C66.1453,18.9762715 66.1078875,18.9275144 66.0517688,18.8690058 C66.040545,18.8573041 66.0296954,18.8459925 66.0192199,18.8350709 L65.9350418,18.7473081 L65.9350418,18.7473081 L65.9114719,18.7227345 C65.8740594,18.7032316 65.8272938,18.6739774 65.771175,18.6349717 C65.7150563,18.595966 65.6776438,18.5862145 65.6589375,18.6057174 C65.4157563,18.8982601 65.1538688,19.1322943 64.873275,19.3078199 C64.5926813,19.4833456 64.2279094,19.5711084 63.7789594,19.5711084 C63.1242406,19.5711084 62.5303172,19.4102099 61.9971891,19.0884129 C61.4640609,18.7666159 60.5427781,17.8451063 59.2333406,16.3238841 L59.2333406,16.3238841 L62.7688219,11.7017091 C63.3113031,11.0386122 63.7836359,10.5607924 64.1858203,10.2682497 C64.5880047,9.97570697 65.3035188,9.75142421 66.3323625,9.59540142 C66.3884813,9.59540142 66.4399234,9.52226574 66.4866891,9.37599438 C66.5334547,9.22972302 66.5568375,9.08832736 66.5568375,8.95180743 C66.5568375,8.81528749 66.5334547,8.67389184 66.4866891,8.52762047 C66.4399234,8.38134911 66.3884813,8.30821343 66.3323625,8.30821343 C65.7150563,8.30821343 65.1351625,8.3374677 64.5926813,8.39597625 C64.0502,8.45448479 63.3580688,8.48373906 62.5162875,8.48373906 C61.6558,8.48373906 60.9028734,8.45448479 60.2575078,8.39597625 C59.6121422,8.3374677 58.9714531,8.30821343 58.3354406,8.30821343 C58.2793219,8.30821343 58.2278797,8.38622482 58.1811141,8.54224761 C58.1343484,8.6982704 58.1109656,8.83479034 58.1109656,8.95180743 C58.1109656,9.06882452 58.1343484,9.20534446 58.1811141,9.36136724 C58.2278797,9.51739003 58.2793219,9.59540142 58.3354406,9.59540142 C59.5887594,9.71241851 60.3323328,9.87331701 60.5661609,10.0780969 C60.7999891,10.2828768 60.9169031,10.5607924 60.9169031,10.9118437 C60.9169031,11.5359348 60.7298406,12.1161446 60.3557156,12.6524729 C59.9815906,13.1888012 59.3268719,14.0713051 58.3915594,15.2999846 L58.3915594,15.2999846 L54.098475,10.2682497 C55.146025,9.64415854 55.9691,8.97131027 56.5677,8.24970488 C57.1663,7.52809949 57.4656,6.77723983 57.4656,5.99712589 C57.4656,5.21701195 57.1195344,4.45152515 56.4274031,3.70066549 C55.7352719,2.94980582 54.6596625,2.57437599 53.200575,2.57437599 C51.32995,2.57437599 49.8381266,3.07169863 48.7251047,4.0663439 C47.6120828,5.06098917 47.0555719,6.26041434 47.0555719,7.66461943 C47.0555719,8.26920773 47.2052219,8.86404461 47.5045219,9.44913006 C47.8038219,10.0342155 48.2434188,10.5997981 48.8233125,11.1458779 C47.064925,11.5359348 45.718075,12.2039074 44.7827625,13.1497955 C43.84745,14.0956837 43.3797938,15.2609789 43.3797938,16.6456811 C43.3797938,18.0693891 44.0204828,19.2931928 45.3018609,20.3170923 C46.5832391,21.3409919 48.1779469,21.8529417 50.0859844,21.8529417 C51.3580094,21.8529417 52.4195891,21.6579132 53.2707234,21.2678562 C54.1218578,20.8777992 54.9402563,20.2537081 55.7259188,19.3955828 C56.5302875,20.4292337 57.3533625,21.1069577 58.1951438,21.4287547 C59.036925,21.7505517 60.0283563,21.9114502 61.1694375,21.9114502 Z M53.3969906,9.36136724 C52.8545094,8.73727609 52.4570016,8.20582347 52.2044672,7.76700938 C51.9519328,7.32819529 51.8256656,6.8454998 51.8256656,6.31892289 C51.8256656,5.65582604 51.9753156,5.09999486 52.2746156,4.65142935 C52.5739156,4.20286383 53.0322188,3.97858108 53.649525,3.97858108 C54.2668313,3.97858108 54.697075,4.17848527 54.9402563,4.57829367 C55.1834375,4.97810206 55.3050281,5.46079756 55.3050281,6.02638016 C55.3050281,6.51395137 55.1694078,7.06490684 54.8981672,7.67924657 C54.6269266,8.29358629 54.1265344,8.85429318 53.3969906,9.36136724 Z M52.0501406,19.4540913 C50.9838844,19.4540913 50.0859844,19.0640343 49.3564406,18.2839204 C48.6268969,17.5038065 48.262125,16.4701555 48.262125,15.1829675 C48.262125,14.5003678 48.3603328,13.8957795 48.5567484,13.3692026 C48.7531641,12.8426257 49.0852,12.4038116 49.5528563,12.0527603 L49.5528563,12.0527603 L54.9121969,18.4009375 C54.5380719,18.7519888 54.1171813,19.0152772 53.649525,19.1908028 C53.1818688,19.3663285 52.6487406,19.4540913 52.0501406,19.4540913 Z M79.9692188,21.3848733 C80.0253375,21.3848733 80.0767797,21.3068619 80.1235453,21.1508391 C80.1703109,20.9948163 80.1936938,20.8582964 80.1936938,20.7412793 C80.1936938,20.6437651 80.1703109,20.5121208 80.1235453,20.3463466 C80.0767797,20.1805724 80.0253375,20.0976853 79.9692188,20.0976853 C78.8842563,19.9806682 78.1266531,19.7368826 77.6964094,19.3663285 C77.2661656,18.9957744 77.0510438,18.4204403 77.0510438,17.6403264 L77.0510438,17.6403264 L77.0510438,11.9649975 L78.4540125,11.9649975 C79.4828563,11.9649975 80.2544891,12.2429131 80.7689109,12.7987443 C81.2833328,13.3545755 81.6060156,14.1395651 81.7369594,15.1537132 C81.7369594,15.2122218 81.8071078,15.2658546 81.9474047,15.3146117 C82.0877016,15.3633688 82.2233219,15.3877474 82.3542656,15.3877474 C82.4852094,15.3877474 82.6208297,15.3633688 82.7611266,15.3146117 C82.9014234,15.2658546 82.9715719,15.2122218 82.9715719,15.1537132 C82.9715719,14.4516107 82.9435125,13.803141 82.8873938,13.2083041 C82.831275,12.6134672 82.8032156,11.9747489 82.8032156,11.2921492 C82.8032156,10.6290524 82.831275,9.98545839 82.8873938,9.36136724 C82.9435125,8.73727609 82.9715719,8.06442782 82.9715719,7.34282243 C82.9715719,7.28431389 82.9014234,7.23068105 82.7611266,7.18192393 C82.6208297,7.13316681 82.4852094,7.10878825 82.3542656,7.10878825 C82.2233219,7.10878825 82.0877016,7.13316681 81.9474047,7.18192393 C81.8071078,7.23068105 81.7369594,7.28431389 81.7369594,7.34282243 C81.6247219,8.298462 81.2880094,9.06882452 80.7268219,9.65390997 C80.1656344,10.2389954 79.4080313,10.5315381 78.4540125,10.5315381 L78.4540125,10.5315381 L77.0510438,10.5315381 L77.0510438,4.35888662 C77.0510438,3.59827553 77.2287531,3.12045575 77.5841719,2.92542726 C77.9395906,2.73039878 78.3137156,2.63288454 78.7065469,2.63288454 L78.7065469,2.63288454 L80.3901094,2.63288454 C82.0362594,2.63288454 83.2942547,3.20334285 84.1640953,4.34425949 C85.0339359,5.48517612 85.5530344,6.70897986 85.7213906,8.0156707 C85.7213906,8.0546764 85.7821859,8.09368209 85.9037766,8.13268779 C86.0253672,8.17169349 86.123575,8.19119634 86.1984,8.19119634 C86.3667563,8.19119634 86.5351125,8.14731493 86.7034688,8.05955211 C86.871825,7.97178929 86.9560031,7.88890219 86.9560031,7.81089079 C86.8998844,6.89425692 86.8390891,5.74846457 86.7736172,4.37351376 C86.7081453,2.99856294 86.6754094,1.8917763 86.6754094,1.05315381 C85.5343281,1.09215951 84.028475,1.1262895 82.15785,1.15554377 C80.3941179,1.18312637 78.9879194,1.19770574 77.9392547,1.19928189 L77.6356189,1.19936429 C76.4560157,1.19814664 74.9610729,1.17866408 73.1507906,1.14091663 C71.2801656,1.10191094 69.8397844,1.07265666 68.8296469,1.05315381 C68.7735281,1.05315381 68.7220859,1.1262895 68.6753203,1.27256086 C68.6285547,1.41883222 68.6051719,1.56022787 68.6051719,1.69674781 C68.6051719,1.79426205 68.6285547,1.92103057 68.6753203,2.07705336 C68.7220859,2.23307614 68.7735281,2.32083896 68.8296469,2.34034181 C69.9146094,2.47686175 70.6301234,2.72064735 70.9761891,3.07169863 C71.3222547,3.4227499 71.4952875,3.99808393 71.4952875,4.79770071 L71.4952875,4.79770071 L71.4952875,17.6403264 C71.4952875,18.4399432 71.3222547,19.0152772 70.9761891,19.3663285 C70.6301234,19.7173798 69.9146094,19.9611654 68.8296469,20.0976853 C68.7735281,20.1171881 68.7220859,20.204951 68.6753203,20.3609738 C68.6285547,20.5169965 68.6051719,20.6437651 68.6051719,20.7412793 C68.6051719,20.8777992 68.6285547,21.0191949 68.6753203,21.1654662 C68.7220859,21.3117376 68.7735281,21.3848733 68.8296469,21.3848733 C69.7462531,21.3848733 70.6675359,21.3604947 71.5934953,21.3117376 C72.5194547,21.2629805 73.4126781,21.2386019 74.2731656,21.2386019 C75.1336531,21.2386019 76.0689656,21.2629805 77.0791031,21.3117376 C78.0892406,21.3604947 79.0526125,21.3848733 79.9692188,21.3848733 Z M97.0573781,21.3848733 C97.1134969,21.3848733 97.1649391,21.3068619 97.2117047,21.1508391 C97.2584703,20.9948163 97.2818531,20.8582964 97.2818531,20.7412793 C97.2818531,20.6437651 97.2584703,20.5121208 97.2117047,20.3463466 C97.1649391,20.1805724 97.1134969,20.0976853 97.0573781,20.0976853 C96.3839531,20.0391768 95.8975906,19.8441483 95.5982906,19.5125998 C95.2989906,19.1810514 95.1493406,18.5569603 95.1493406,17.6403264 L95.1493406,17.6403264 L95.1495145,5.23802587 C95.1519495,4.62622474 95.1799509,3.84560711 95.2335188,2.89617299 C95.2896375,1.90152772 95.3364031,1.06290524 95.3738156,0.380305544 C95.3925219,0.302294151 95.3504328,0.219407045 95.2475484,0.131644227 C95.1446641,0.0438814089 94.9809844,0 94.7565094,0 C94.6629781,0 94.5507406,0.0292542726 94.4197969,0.0877628179 C94.2888531,0.146271363 94.1953219,0.195028484 94.1392031,0.234034181 C93.4283656,0.585085453 92.5351422,0.970266709 91.4595328,1.38957795 C90.3839234,1.80888919 89.3971688,2.12581048 88.4992688,2.34034181 C88.44315,2.34034181 88.3917078,2.41347749 88.3449422,2.55974886 C88.2981766,2.70602022 88.2747938,2.82791302 88.2747938,2.92542726 C88.2747938,3.02294151 88.2981766,3.14483431 88.3449422,3.29110567 C88.3917078,3.43737703 88.44315,3.52026414 88.4992688,3.53976699 C89.2101063,3.61777838 89.7058219,3.77867688 89.9864156,4.02246249 C90.2670094,4.26624809 90.4073063,4.77819786 90.4073063,5.5583118 L90.4073063,5.5583118 L90.4073063,17.6403264 C90.4073063,18.5764631 90.2623328,19.2005543 89.9723859,19.5125998 C89.6824391,19.8246454 89.1914,20.0196739 88.4992688,20.0976853 C88.44315,20.1171881 88.3917078,20.204951 88.3449422,20.3609738 C88.2981766,20.5169965 88.2747938,20.6437651 88.2747938,20.7412793 C88.2747938,20.8582964 88.2981766,20.9948163 88.3449422,21.1508391 C88.3917078,21.3068619 88.44315,21.3848733 88.4992688,21.3848733 C89.0604563,21.3848733 89.7245281,21.355619 90.4914844,21.2971105 C91.2584406,21.2386019 91.959925,21.2093477 92.5959375,21.2093477 C93.2506563,21.2093477 94.0129359,21.2386019 94.8827766,21.2971105 C95.7526172,21.355619 96.4774844,21.3848733 97.0573781,21.3848733 Z M101.883591,5.67532889 C102.575722,5.67532889 103.174322,5.41204044 103.679391,4.88546353 C104.184459,4.35888662 104.436994,3.72504405 104.436994,2.98393581 C104.436994,2.26233042 104.184459,1.63823927 103.679391,1.11166236 C103.174322,0.585085453 102.575722,0.321796999 101.883591,0.321796999 C101.191459,0.321796999 100.592859,0.585085453 100.087791,1.11166236 C99.5827219,1.63823927 99.3301875,2.26233042 99.3301875,2.98393581 C99.3301875,3.72504405 99.5827219,4.35888662 100.087791,4.88546353 C100.592859,5.41204044 101.191459,5.67532889 101.883591,5.67532889 Z M106.316972,21.3848733 C106.373091,21.3848733 106.424533,21.3068619 106.471298,21.1508391 C106.518064,20.9948163 106.541447,20.8582964 106.541447,20.7412793 C106.541447,20.6437651 106.518064,20.5121208 106.471298,20.3463466 C106.424533,20.1805724 106.373091,20.0976853 106.316972,20.0976853 C105.643547,20.0391768 105.157184,19.8441483 104.857884,19.5125998 C104.558584,19.1810514 104.408934,18.5569603 104.408934,17.6403264 L104.408934,17.6403264 L104.408934,13.0474056 C104.408934,12.3843087 104.436994,11.5651891 104.493113,10.5900467 C104.549231,9.61490427 104.595997,8.78603321 104.633409,8.10343352 C104.652116,8.00591928 104.610027,7.91815646 104.507142,7.84014507 C104.404258,7.76213367 104.240578,7.72312797 104.016103,7.72312797 C103.922572,7.72312797 103.810334,7.75238225 103.679391,7.81089079 C103.548447,7.86939934 103.454916,7.91815646 103.398797,7.95716216 C102.781491,8.26920773 101.91165,8.64463756 100.789275,9.08345165 C99.6669,9.52226574 98.6567625,9.83918703 97.7588625,10.0342155 C97.7027438,10.0342155 97.6513016,10.1122269 97.6045359,10.2682497 C97.5577703,10.4242725 97.5343875,10.551041 97.5343875,10.6485552 C97.5343875,10.7460695 97.5577703,10.8679623 97.6045359,11.0142336 C97.6513016,11.160505 97.7027438,11.2433921 97.7588625,11.262895 C98.4509938,11.3409064 98.9420328,11.4969291 99.2319797,11.7309633 C99.5219266,11.9649975 99.6669,12.4720716 99.6669,13.2521855 L99.6669,13.2521855 L99.6669,17.6403264 C99.6669,18.5764631 99.5219266,19.2005543 99.2319797,19.5125998 C98.9420328,19.8246454 98.4509938,20.0196739 97.7588625,20.0976853 C97.7027438,20.1171881 97.6513016,20.204951 97.6045359,20.3609738 C97.5577703,20.5169965 97.5343875,20.6437651 97.5343875,20.7412793 C97.5343875,20.8582964 97.5577703,20.9948163 97.6045359,21.1508391 C97.6513016,21.3068619 97.7027438,21.3848733 97.7588625,21.3848733 C98.32005,21.3848733 98.9841219,21.3604947 99.7510781,21.3117376 C100.518034,21.2629805 101.219519,21.2386019 101.855531,21.2386019 C102.51025,21.2386019 103.27253,21.2629805 104.14237,21.3117376 C105.012211,21.3604947 105.737078,21.3848733 106.316972,21.3848733 Z M115.352091,28.9617299 C115.408209,28.9617299 115.459652,28.8837185 115.506417,28.7276957 C115.553183,28.5716729 115.576566,28.435153 115.576566,28.3181359 C115.576566,28.2206217 115.553183,28.0889774 115.506417,27.9232032 C115.459652,27.757429 115.408209,27.6745419 115.352091,27.6745419 C114.529016,27.5965305 113.967828,27.401502 113.668528,27.0894565 C113.369228,26.7774109 113.219578,26.1533197 113.219578,25.217183 L113.219578,25.217183 L113.219578,21.1800934 C113.556291,21.3751219 113.935092,21.5311447 114.355983,21.6481617 C114.776873,21.7651788 115.277266,21.8236874 115.857159,21.8236874 C118.064497,21.8236874 119.799502,21.0972063 121.062173,19.6442441 C122.324845,18.1912819 122.956181,16.4604041 122.956181,14.4516107 C122.956181,12.5988401 122.451113,11.0386122 121.440975,9.77092706 C120.430838,8.50324191 119.046575,7.86939934 117.288188,7.86939934 C116.184519,7.86939934 115.291295,8.11806066 114.608517,8.61538329 C113.925739,9.11270593 113.425347,9.67341282 113.107341,10.297504 L113.107341,10.297504 L113.219578,8.0156707 C113.238284,7.93765931 113.196195,7.8547722 113.093311,7.76700938 C112.990427,7.67924657 112.826747,7.63536516 112.602272,7.63536516 C112.508741,7.63536516 112.396503,7.66461943 112.265559,7.72312797 C112.134616,7.78163652 112.041084,7.83039364 111.984966,7.86939934 C111.461191,8.14243922 110.642792,8.4983662 109.52977,8.93718029 C108.416748,9.37599438 107.542231,9.68316424 106.906219,9.85868988 C106.8501,9.85868988 106.798658,9.93182556 106.751892,10.0780969 C106.705127,10.2243683 106.681744,10.3462611 106.681744,10.4437753 C106.681744,10.5412896 106.705127,10.6631824 106.751892,10.8094537 C106.798658,10.9557251 106.8501,11.0386122 106.906219,11.0581151 C107.579644,11.1361264 108.005211,11.3019007 108.18292,11.5554377 C108.36063,11.8089747 108.449484,12.3160488 108.449484,13.0766599 L108.449484,13.0766599 L108.449484,25.217183 C108.449484,26.1923254 108.341923,26.8212923 108.126802,27.1040836 C107.91168,27.3868749 107.392581,27.5770277 106.569506,27.6745419 C106.513388,27.6940448 106.461945,27.7818076 106.41518,27.9378304 C106.368414,28.0938532 106.345031,28.2206217 106.345031,28.3181359 C106.345031,28.4546558 106.368414,28.5960515 106.41518,28.7423229 C106.461945,28.8885942 106.513388,28.9617299 106.569506,28.9617299 C107.130694,28.9617299 107.818148,28.9373513 108.63187,28.8885942 C109.445592,28.8398371 110.179813,28.8154585 110.834531,28.8154585 C111.48925,28.8154585 112.256206,28.8398371 113.1354,28.8885942 C114.014594,28.9373513 114.753491,28.9617299 115.352091,28.9617299 Z M115.295972,20.4487366 C114.585134,20.4487366 114.061359,20.2488324 113.724647,19.849024 C113.387934,19.4492156 113.219578,18.9080115 113.219578,18.2254119 L113.219578,18.2254119 L113.219578,12.0235061 C113.612409,11.2823978 113.953798,10.7948266 114.243745,10.5607924 C114.533692,10.3267582 114.968613,10.2097411 115.548506,10.2097411 C116.240638,10.2097411 116.801825,10.5607924 117.232069,11.262895 C117.662313,11.9649975 117.877434,13.1059141 117.877434,14.6856449 C117.877434,15.5827759 117.854052,16.3726412 117.807286,17.0552409 C117.76052,17.7378406 117.662313,18.3131747 117.512663,18.781243 C117.363013,19.3078199 117.110478,19.7173798 116.755059,20.0099225 C116.399641,20.3024652 115.913278,20.4487366 115.295972,20.4487366 Z" id="Gif&amp;Flip"></path>
                </g>
            </g>
        </g>
    </g>
</svg>