<?xml version="1.0" encoding="UTF-8"?>
<svg width="16px" height="9px" viewBox="0 0 16 9" version="1.1" xmlns="http://www.w3.org/2000/svg" xmlns:xlink="http://www.w3.org/1999/xlink" stroke="currentColor">
    <title>38AA0984-7A0F-4268-A4E3-95349AA6ADEE@1x</title>
    <defs>
        <path d="M16.7108434,5.28915663 C16.3253012,4.90361446 15.746988,4.90361446 15.3614458,5.28915663 L9,11.5542169 L2.63855422,5.28915663 C2.25301205,4.90361446 1.6746988,4.90361446 1.28915663,5.28915663 C0.903614458,5.6746988 0.903614458,6.25301205 1.28915663,6.63855422 L8.3253012,13.6746988 C8.51807229,13.8674699 8.80722892,13.9638554 9,13.9638554 C9.19277108,13.9638554 9.48192771,13.8674699 9.6746988,13.6746988 L16.7108434,6.63855422 C17.0963855,6.25301205 17.0963855,5.57831325 16.7108434,5.28915663 Z" id="path-1"></path>
    </defs>
    <g id="Lizenzen-&amp;-Assets-✅" stroke="none" stroke-width="1" fill="none" fill-rule="evenodd">
        <g id="Icons" transform="translate(-370.000000, -614.000000)">
            <g id="Group" transform="translate(369.000000, 609.000000)">
                <mask id="mask-2" fill="currentColor">
                    <use xlink:href="#path-1"></use>
                </mask>
                <use id="Shape" fill="#071C31" transform="translate(9.000000, 9.481928) rotate(-360.000000) translate(-9.000000, -9.481928) " xlink:href="#path-1"></use>
                <g mask="url(#mask-2)" fill="currentColor" id="Rectangle">
                    <g>
                        <rect x="0" y="0" width="24" height="24"></rect>
                    </g>
                </g>
            </g>
        </g>
    </g>
</svg>
