<?xml version="1.0" encoding="UTF-8"?><svg width="16" height="11" xmlns="http://www.w3.org/2000/svg" xmlns:xlink="http://www.w3.org/1999/xlink"><defs><path d="m12.9 3.22.1.08 4.5 4.84-4.63 4.66c-.38.41-1 .41-1.37 0a1.1 1.1 0 0 1-.08-1.37l.08-.1 2.28-2.22H5.9a2 2 0 0 1-1.28-.47l-.13-.12-3.2-3.2a1 1 0 0 1 1.31-1.5l.1.08 3.2 3.2h7.9l-2.18-2.32a1.1 1.1 0 0 1-.08-1.38l.08-.1c.35-.37.9-.4 1.28-.08Z" id="ic-back"/></defs><use fill="currentColor" fill-rule="nonzero" transform="rotate(0 10.75 10), scale(0.8)" xlink:href="#ic-back"/></svg>
