<?xml version="1.0" encoding="UTF-8"?><svg width="22" height="24" xmlns="http://www.w3.org/2000/svg" xmlns:xlink="http://www.w3.org/1999/xlink"><defs><path d="M16 0c.6 0 1 .4 1 1v1h5a1 1 0 0 1 1 1v20a1 1 0 0 1-1 1H2a1 1 0 0 1-1-1V3a1 1 0 0 1 1-1h5V1c0-.6.4-1 1-1s1 .4 1 1v1h6V1c0-.6.4-1 1-1ZM7 4H3v18.1h18V9H5c-.6 0-1-.4-1-1s.4-1 1-1h16V4h-4v1c0 .6-.4 1-1 1s-1-.4-1-1V4H9v1c0 .56-.34.94-.87 1H8c-.6 0-1-.4-1-1V4Zm4.1 8.1v.6l-1.4 1.8c1.1 0 1.8.7 1.8 1.9 0 1.3-1 2.1-2.2 2.1-1.4 0-2.2-.8-2.3-1.9l1.4-.2c.1.4.4.8.9.8.4 0 .8-.3.7-.9 0-.5-.4-.9-.9-.9-.1 0-.4 0-.5.1l-.6-.8 1.1-1.4H7.3v-1.2h3.8Zm3.6-.1c1.5 0 2.4 1.2 2.4 3.2 0 2.1-.9 3.3-2.4 3.2-1.5 0-2.4-1.2-2.4-3.2s.8-3.2 2.4-3.2Zm-.1 1.3c-.6 0-1 .7-1 1.9 0 1.3.4 2 1 1.9.6 0 1-.7 1-1.9s-.3-1.9-1-1.9Z" id="ic-calendar"/></defs><g transform="translate(-1)" fill="none" fill-rule="evenodd"><use fill="currentColor" xlink:href="#ic-calendar"/></g></svg>