<?xml version="1.0" encoding="UTF-8"?><svg width="22" height="24" xmlns="http://www.w3.org/2000/svg" xmlns:xlink="http://www.w3.org/1999/xlink"><defs><path d="M12 0c3.45 0 5.48 2.6 5.91 6H21a1 1 0 0 1 1 1l1 16a1 1 0 0 1-1 1H2a1 1 0 0 1-1-1L2 7a1 1 0 0 1 1-1h3.08c.4-3.4 2.47-6 5.92-6Zm8 8h-2v2h-2V8H8v2H6V8H4L3 22h18L20 8Zm-8-6C9.67 2 8.46 3.7 8.1 6h7.81c-.33-2.3-1.58-4-3.91-4Z" id="ic-cart"/></defs><g transform="translate(-1)" fill="none" fill-rule="evenodd"><use fill="currentColor" xlink:href="#ic-cart"/></g></svg>
