<?xml version="1.0" encoding="UTF-8"?>
<svg width="18px" height="15px" viewBox="0 0 18 15" version="1.1" xmlns="http://www.w3.org/2000/svg" xmlns:xlink="http://www.w3.org/1999/xlink">
    <title>B02C3D75-1367-4F1A-88C7-8063605AB662@1x</title>
    <defs>
        <path d="M15.7038378,0.894916732 C16.0380161,0.455208494 16.665375,0.369659545 17.1050833,0.703837806 C17.5109678,1.01231005 17.6150835,1.57059306 17.3658593,2.00049992 L17.2961622,2.10508327 L8.07644462,14.2346969 C7.58464021,14.8357912 6.7233061,14.9564192 6.08925494,14.5368998 L5.96565198,14.4457762 L0.86676221,10.2739573 C0.439317396,9.92422972 0.376315126,9.29420702 0.726042701,8.86676221 C1.04886815,8.47219777 1.61052496,8.38816425 2.03122041,8.65264092 L2.13323779,8.7260427 L6.831,12.569 L15.7038378,0.894916732 Z" id="path-1"></path>
    </defs>
    <g id="Lizenzen-&amp;-Assets-✅" stroke="none" stroke-width="1" fill="none" fill-rule="evenodd">
        <g id="Icons" transform="translate(-342.000000, -655.000000)">
            <g id="Group" transform="translate(339.000000, 651.000000)">
                <g id="Fills/White" transform="translate(3.000000, 4.000000)">
                    <mask id="mask-2" fill="white">
                        <use xlink:href="#path-1"></use>
                    </mask>
                    <use id="Mask" fill="#979797" fill-rule="nonzero" xlink:href="#path-1"></use>
                    <g id="Group" mask="url(#mask-2)">
                        <g transform="translate(-3.000000, -4.000000)">
                            <rect id="Rectangle" fill="#071C31" x="0" y="0" width="24" height="24"></rect>
                        </g>
                    </g>
                </g>
            </g>
        </g>
    </g>
</svg>