<?xml version="1.0" encoding="UTF-8"?><svg width="14" height="14" xmlns="http://www.w3.org/2000/svg" xmlns:xlink="http://www.w3.org/1999/xlink"><defs><path d="M5.3 5.3c.4-.4 1-.4 1.4 0l5.2 5.1L17 5.3c.4-.4 1-.4 1.4 0 .4.4.4 1 0 1.4l-5.1 5.1-.05.05 5.05 5.05c.37.37.4.9.09 1.3l-.09.1c-.2.2-.5.3-.7.3-.2 0-.5-.1-.7-.3l-5.1-5.1-5.1 5.1c-.2.2-.5.3-.7.3-.2 0-.5-.1-.7-.3-.4-.4-.4-1 0-1.4l5.1-5.1-5.1-5.1c-.4-.4-.4-1 0-1.4Z" id="a"/></defs><g transform="translate(-5 -5)" fill="none" fill-rule="evenodd"><mask id="b" fill="#fff"><use xlink:href="#a"/></mask><use fill="#000" fill-rule="nonzero" xlink:href="#a"/><g mask="url(#b)" fill="#071C31"><path d="M0 0h24v24H0z"/></g></g></svg>