<?xml version="1.0" encoding="UTF-8"?><svg width="18" height="18" viewBox="0 0 18 18" xmlns="http://www.w3.org/2000/svg" xmlns:xlink="http://www.w3.org/1999/xlink"><defs><path d="M8.843.771a.932.932 0 0 1 1.35 0 .932.932 0 0 1 0 1.35L3.928 8.48l6.265 6.362a.932.932 0 0 1 0 1.35c-.29.385-.964.385-1.35 0L1.807 9.157a1.041 1.041 0 0 1-.289-.675c0-.193.096-.482.29-.675Zm6 0a.932.932 0 0 1 1.35 0 .932.932 0 0 1 0 1.35L9.928 8.48l6.265 6.362a.932.932 0 0 1 0 1.35c-.29.385-.964.385-1.35 0L7.807 9.157a1.041 1.041 0 0 1-.289-.675c0-.193.096-.482.29-.675Z" id="ic-double-left"/></defs><g fill="none" fill-rule="evenodd"><use fill="currentColor" xlink:href="#ic-double-left"/></g></svg>