<?xml version="1.0" encoding="UTF-8"?><svg width="18" height="18" viewBox="0 0 18 18" xmlns="http://www.w3.org/2000/svg" xmlns:xlink="http://www.w3.org/1999/xlink"><defs><path d="M8.84337349,0.771084337 C9.22891566,0.385542169 9.80722892,0.385542169 10.1927711,0.771084337 C10.5783133,1.15662651 10.5783133,1.73493976 10.1927711,2.12048193 L10.1927711,2.12048193 L3.92771084,8.48192771 L10.1927711,14.8433735 C10.5783133,15.2289157 10.5783133,15.8072289 10.1927711,16.1927711 C9.90361446,16.5783133 9.22891566,16.5783133 8.84337349,16.1927711 L8.84337349,16.1927711 L1.80722892,9.15662651 C1.61445783,8.96385542 1.51807229,8.6746988 1.51807229,8.48192771 C1.51807229,8.28915663 1.61445783,8 1.80722892,7.80722892 L1.80722892,7.80722892 Z M14.8433735,0.771084337 C15.2289157,0.385542169 15.8072289,0.385542169 16.1927711,0.771084337 C16.5783133,1.15662651 16.5783133,1.73493976 16.1927711,2.12048193 L16.1927711,2.12048193 L9.92771084,8.48192771 L16.1927711,14.8433735 C16.5783133,15.2289157 16.5783133,15.8072289 16.1927711,16.1927711 C15.9036145,16.5783133 15.2289157,16.5783133 14.8433735,16.1927711 L14.8433735,16.1927711 L7.80722892,9.15662651 C7.61445783,8.96385542 7.51807229,8.6746988 7.51807229,8.48192771 C7.51807229,8.28915663 7.61445783,8 7.80722892,7.80722892 L7.80722892,7.80722892 Z" id="aa"></path></defs><g fill="none" fill-rule="evenodd"><mask id="ba" fill="#fff"><use xlink:href="#aa"></use></mask><use fill="#071C31" xlink:href="#aa"></use><g mask="url(#ba)" fill="currentColor"></g></g></svg>
