<?xml version="1.0" encoding="UTF-8"?><svg width="18" height="18" viewBox="0 0 18 18" xmlns="http://www.w3.org/2000/svg" xmlns:xlink="http://www.w3.org/1999/xlink"><defs><path d="m3.157.771 7.036 7.036c.193.193.289.482.289.675 0 .193-.096.482-.29.675l-7.035 7.036c-.386.385-1.06.385-1.35 0a.932.932 0 0 1 0-1.35l6.265-6.361L1.807 2.12a.932.932 0 0 1 0-1.349.932.932 0 0 1 1.35 0Zm6 0 7.036 7.036c.193.193.289.482.289.675 0 .193-.096.482-.29.675l-7.035 7.036c-.386.385-1.06.385-1.35 0a.932.932 0 0 1 0-1.35l6.265-6.361L7.807 2.12a.932.932 0 0 1 0-1.349.932.932 0 0 1 1.35 0Z" id="ic-double-right"/></defs><g fill="none" fill-rule="evenodd"><use fill="currentColor" xlink:href="#ic-double-right"/></g></svg>