<?xml version="1.0" encoding="UTF-8"?><svg width="16px" height="16px" viewBox="0 0 16 16" version="1.1" xmlns="http://www.w3.org/2000/svg" xmlns:xlink="http://www.w3.org/1999/xlink"><g id="Symbols" stroke="none" stroke-width="1" fill="none" fill-rule="evenodd"><g id="Forms-/Media-Upload/File-error" transform="translate(-16.000000, -16.000000)" fill="#C30205"><g id="icons/regular/times-hexagon-" transform="translate(16.000000, 16.000000)"><path d="M7.05719096,8 L5.52859548,6.47140452 C5.26824595,6.21105499 5.26824595,5.78894501 5.52859548,5.52859548 C5.78894501,5.26824595 6.21105499,5.26824595 6.47140452,5.52859548 L8,7.05719096 L9.52859548,5.52859548 C9.78894501,5.26824595 10.211055,5.26824595 10.4714045,5.52859548 C10.731754,5.78894501 10.731754,6.21105499 10.4714045,6.47140452 L8.94280904,8 L10.4714045,9.52859548 C10.731754,9.78894501 10.731754,10.211055 10.4714045,10.4714045 C10.211055,10.731754 9.78894501,10.731754 9.52859548,10.4714045 L8,8.94280904 L6.47140452,10.4714045 C6.21105499,10.731754 5.78894501,10.731754 5.52859548,10.4714045 C5.26824595,10.211055 5.26824595,9.78894501 5.52859548,9.52859548 L7.05719096,8 Z M4.82842712,0 L11.1715729,0 C11.7020059,0 12.2107137,0.210713681 12.5857864,0.585786438 L15.4142136,3.41421356 C15.7892863,3.78928632 16,4.29799415 16,4.82842712 L16,11.1715729 C16,11.7020059 15.7892863,12.2107137 15.4142136,12.5857864 L12.5857864,15.4142136 C12.2107137,15.7892863 11.7020059,16 11.1715729,16 L4.82842712,16 C4.29799415,16 3.78928632,15.7892863 3.41421356,15.4142136 L0.585786438,12.5857864 C0.210713681,12.2107137 0,11.7020059 0,11.1715729 L0,4.82842712 C0,4.29799415 0.210713681,3.78928632 0.585786438,3.41421356 L3.41421356,0.585786438 C3.78928632,0.210713681 4.29799415,0 4.82842712,0 Z M4.82842712,1.33333333 C4.65161613,1.33333333 4.48204686,1.40357123 4.3570226,1.52859548 L1.52859548,4.3570226 C1.40357123,4.48204686 1.33333333,4.65161613 1.33333333,4.82842712 L1.33333333,11.1715729 C1.33333333,11.3483839 1.40357123,11.5179531 1.52859548,11.6429774 L4.3570226,14.4714045 C4.48204686,14.5964288 4.65161613,14.6666667 4.82842712,14.6666667 L11.1715729,14.6666667 C11.3483839,14.6666667 11.5179531,14.5964288 11.6429774,14.4714045 L14.4714045,11.6429774 C14.5964288,11.5179531 14.6666667,11.3483839 14.6666667,11.1715729 L14.6666667,4.82842712 C14.6666667,4.65161613 14.5964288,4.48204686 14.4714045,4.3570226 L11.6429774,1.52859548 C11.5179531,1.40357123 11.3483839,1.33333333 11.1715729,1.33333333 L4.82842712,1.33333333 Z" id="Icon"/></g></g></g></svg>
