<?xml version="1.0" encoding="UTF-8"?><svg width="16" height="12" xmlns="http://www.w3.org/2000/svg" xmlns:xlink="http://www.w3.org/1999/xlink"><defs><path d="M13 9a1 1 0 0 1 1 1v1h2a1 1 0 0 1 1 .88V12a1 1 0 0 1-1 1h-2v1a1 1 0 0 1-.88 1H13a1 1 0 0 1-1-1v-4a1 1 0 0 1 1-1Zm-3 2a1 1 0 0 1 0 2H2a1 1 0 0 1 0-2ZM6 3a1 1 0 0 1 1 1v4a1 1 0 1 1-2 0V7H2a1 1 0 1 1 0-2h3V4a1 1 0 0 1 1-1Zm10 2a1 1 0 0 1 0 2H9a1 1 0 1 1 0-2h7Z" id="a"/></defs><g transform="translate(-1 -3)" fill="none" fill-rule="evenodd"><mask id="b" fill="#fff"><use xlink:href="#a"/></mask><use fill="#071C31" xlink:href="#a"/><g mask="url(#b)" fill="#071C31"><path d="M0 0h18v18H0z"/></g></g></svg>