<?xml version="1.0" encoding="UTF-8"?><svg width="12px" height="16px" viewBox="0 0 12 16" version="1.1" xmlns="http://www.w3.org/2000/svg" xmlns:xlink="http://www.w3.org/1999/xlink"><g id="Symbols" stroke="none" stroke-width="1" fill="none" fill-rule="evenodd"><g id="Forms-/Media-Upload/File-active" transform="translate(-18.000000, -16.000000)" fill="#071C31"><g id="icons/regular/file-text" transform="translate(16.000000, 16.000000)"><path d="M3.33333333,4.66666667 L3.33333333,14 C3.33333333,14.3681898 3.63181017,14.6666667 4,14.6666667 L12,14.6666667 C12.3681898,14.6666667 12.6666667,14.3681898 12.6666667,14 L12.6666667,2 C12.6666667,1.63181017 12.3681898,1.33333333 12,1.33333333 L6.66666667,1.33333333 L6.66666667,4 C6.66666667,4.36818983 6.36818983,4.66666667 6,4.66666667 L3.33333333,4.66666667 Z M3.41734499,3.33333333 L5.33333333,3.33333333 L5.33333333,1.41734499 C4.39626181,1.65853053 3.65853053,2.39626181 3.41734499,3.33333333 L3.41734499,3.33333333 Z M12,0 C13.1045695,0 14,0.8954305 14,2 L14,14 C14,15.1045695 13.1045695,16 12,16 L4,16 C2.8954305,16 2,15.1045695 2,14 L2,4 C2,1.790861 3.790861,0 6,0 L12,0 Z M5.33333333,7.33333333 C4.9651435,7.33333333 4.66666667,7.0348565 4.66666667,6.66666667 C4.66666667,6.29847683 4.9651435,6 5.33333333,6 L10.6666667,6 C11.0348565,6 11.3333333,6.29847683 11.3333333,6.66666667 C11.3333333,7.0348565 11.0348565,7.33333333 10.6666667,7.33333333 L5.33333333,7.33333333 Z M5.33333333,10 C4.9651435,10 4.66666667,9.70152317 4.66666667,9.33333333 C4.66666667,8.9651435 4.9651435,8.66666667 5.33333333,8.66666667 L10.6666667,8.66666667 C11.0348565,8.66666667 11.3333333,8.9651435 11.3333333,9.33333333 C11.3333333,9.70152317 11.0348565,10 10.6666667,10 L5.33333333,10 Z M5.33333333,12.6666667 C4.9651435,12.6666667 4.66666667,12.3681898 4.66666667,12 C4.66666667,11.6318102 4.9651435,11.3333333 5.33333333,11.3333333 L10.6666667,11.3333333 C11.0348565,11.3333333 11.3333333,11.6318102 11.3333333,12 C11.3333333,12.3681898 11.0348565,12.6666667 10.6666667,12.6666667 L5.33333333,12.6666667 Z" id="Icon"/></g></g></g></svg>
