<?xml version="1.0" encoding="UTF-8"?><svg width="18" height="19" xmlns="http://www.w3.org/2000/svg" xmlns:xlink="http://www.w3.org/1999/xlink"><defs><path d="M18 9.06C18 4.06 13.97 0 9 0S0 4.05 0 9.06c0 4.51 3.3 8.26 7.6 8.94v-6.33H5.3V9.06h2.3v-2c0-2.27 1.34-3.52 3.4-3.52.98 0 2 .17 2 .17v2.23h-1.13c-1.12 0-1.46.7-1.46 1.42v1.7h2.5l-.4 2.61h-2.1V18A9.04 9.04 0 0 0 18 9.06" id="ic-facebook"/></defs><g transform="translate(0 .5)" fill="none" fill-rule="evenodd"><use fill="currentColor" xlink:href="#ic-facebook"/></g></svg>