<?xml version="1.0" encoding="UTF-8"?>
<svg width="18px" height="19px" viewBox="0 0 18 19" version="1.1" xmlns="http://www.w3.org/2000/svg" xmlns:xlink="http://www.w3.org/1999/xlink">
    <title>2C658ACD-E46F-4B1A-9CEE-30A491F528CC@1x</title>
    <defs>
        <path d="M18,9.05500206 C18,4.05405883 13.9705664,0 9,0 C4.02943359,0 0,4.05405883 0,9.05500206 C0,13.5746153 3.29116992,17.320698 7.59375,18 L7.59375,11.6724636 L5.30859375,11.6724636 L5.30859375,9.05500206 L7.59375,9.05500206 L7.59375,7.06007192 C7.59375,4.79066203 8.93738672,3.53711018 10.9931836,3.53711018 C11.9778574,3.53711018 13.0078125,3.71396569 13.0078125,3.71396569 L13.0078125,5.9423451 L11.8729336,5.9423451 C10.7549121,5.9423451 10.40625,6.64034074 10.40625,7.3564287 L10.40625,9.05500206 L12.9023438,9.05500206 L12.5033203,11.6724636 L10.40625,11.6724636 L10.40625,18 C14.7088301,17.320698 18,13.5746153 18,9.05500206" id="path-1"></path>
    </defs>
    <g id="Lizenzen-&amp;-Assets-✅" stroke="none" stroke-width="1" fill="none" fill-rule="evenodd">
        <g id="Icons" transform="translate(-285.000000, -932.000000)">
            <g id="Fills/Grey-900" transform="translate(285.000000, 932.500000)">
                <mask id="mask-2" fill="white">
                    <use xlink:href="#path-1"></use>
                </mask>
                <use id="Mask" fill="#071C31" xlink:href="#path-1"></use>
                <g id="Group" mask="url(#mask-2)" fill="#071C31">
                    <g id="Fills/Grey-900">
                        <rect id="Rectangle" x="0" y="0" width="18" height="18"></rect>
                    </g>
                </g>
            </g>
        </g>
    </g>
</svg>