<?xml version="1.0" encoding="UTF-8"?><svg width="25" height="20" xmlns="http://www.w3.org/2000/svg" xmlns:xlink="http://www.w3.org/1999/xlink"><defs><path d="M19.06 2.92h.15c.43.03.83.2 1.13.5l.08.08 3.22 5.16.09.12c.5.68.43 1.64-.19 2.25L17.4 17.1a76.1 76.1 0 0 1-4.77 4.17 1 1 0 0 1-1.31-.04l-1.4-1.3c-1.5-1.41-2.8-2.67-3.93-3.77L.8 11.03a1.73 1.73 0 0 1-.18-2.25l.09-.12L3.92 3.5 4 3.42c.3-.3.7-.47 1.13-.5h.16l3.3.1c.38 0 .75.15 1.05.39l.13.11.12.14 2.15 2.4 2.44-2.44.1-.1.12-.11c.3-.24.67-.38 1.06-.4l3.3-.1Z" id="a"/></defs><g transform="translate(0 -2)" fill="none" fill-rule="evenodd"><mask id="b" fill="#fff"><use xlink:href="#a"/></mask><use fill="#071C31" fill-rule="nonzero" xlink:href="#a"/><g mask="url(#b)"><path fill="#071C31" d="M0 1h24v24H0z"/></g></g></svg>