<?xml version="1.0" encoding="UTF-8"?><svg width="25" height="20" xmlns="http://www.w3.org/2000/svg" xmlns:xlink="http://www.w3.org/1999/xlink"><defs><path d="M19.06 2.92h.15c.43.03.83.2 1.13.5l.08.08 3.22 5.16.09.12c.5.68.43 1.64-.19 2.25L17.4 17.1a76.1 76.1 0 0 1-4.77 4.17h.01a.96.96 0 0 1-.61.23 1.03 1.03 0 0 1-.52-.13.97.97 0 0 1-.17-.12l-.02-.02-1.4-1.3c-1.5-1.41-2.8-2.67-3.93-3.77L.8 11.03a1.73 1.73 0 0 1-.18-2.25l.09-.12L3.92 3.5 4 3.42c.3-.3.7-.47 1.13-.5h.16l3.3.1c.38 0 .75.15 1.05.39l.13.11.12.14 2.15 2.4 2.44-2.44.1-.1.12-.11c.3-.24.67-.38 1.06-.4l3.3-.1Zm-.1 2-3.02.09-3.15 3.1v.01a1 1 0 0 1-.06.06l-.01.02a1 1 0 0 1-.15.12l-.03.02a1 1 0 0 1-.05.03l.08-.05a1 1 0 0 1-.26.13h-.01a.9.9 0 0 1-.1.03h-.03a.87.87 0 0 1-.25.02 1.14 1.14 0 0 1-.34-.1 1.16 1.16 0 0 1-.19-.1l.08.05a1 1 0 0 1-.06-.04l-.02-.02a1.02 1.02 0 0 1-.12-.1c0-.02-.02-.02-.02-.03l-.02-.02a1 1 0 0 1-.04-.06l-.01-.01L8.38 5 5.4 4.92 2.37 9.77l4.7 4.64c1.35 1.34 3.01 2.93 4.97 4.76a66.1 66.1 0 0 0 4.26-3.8l5.67-5.6-3.02-4.85Z" id="ic-heart"/></defs><g fill="none" fill-rule="evenodd"><use fill="currentColor" fill-rule="nonzero" xlink:href="#ic-heart"/></g></svg>
