<?xml version="1.0" encoding="UTF-8"?><svg width="18" height="18" xmlns="http://www.w3.org/2000/svg" xmlns:xlink="http://www.w3.org/1999/xlink"><defs><path d="M9.99 0c1 0 1.5 0 1.94.02h.19c.18.02.37.02.6.03.95.05 1.6.2 2.18.42.59.23 1.09.54 1.59 1.04s.8 1 1.04 1.6c.22.57.37 1.22.42 2.18l.02.6v.18c.02.44.03.95.03 1.94V10c0 1 0 1.5-.02 1.94v.19c-.02.18-.02.37-.03.6a6.6 6.6 0 0 1-.42 2.18c-.23.59-.54 1.09-1.04 1.59s-1 .8-1.6 1.04a6.6 6.6 0 0 1-2.18.42l-.6.02h-.18c-.44.02-.95.03-1.94.03H8c-1 0-1.5 0-1.94-.02h-.19c-.18-.02-.37-.02-.6-.03a6.6 6.6 0 0 1-2.18-.42c-.59-.23-1.09-.54-1.59-1.04s-.8-1-1.04-1.6a6.6 6.6 0 0 1-.42-2.18l-.02-.6v-.18C0 11.49 0 10.98 0 9.99V8c0-1 0-1.5.02-1.94v-.19c.02-.18.02-.37.03-.6.05-.95.2-1.6.42-2.18.23-.59.54-1.09 1.04-1.59s1-.8 1.6-1.04A6.6 6.6 0 0 1 5.28.05l.6-.02h.18C6.51 0 7.02 0 8.01 0Zm-.45 1.62H7.79c-1.33 0-1.67.02-2.43.05-.87.04-1.35.2-1.67.31-.42.17-.72.36-1.03.68-.32.31-.51.61-.68 1.03-.12.32-.27.8-.3 1.67-.04.76-.05 1.1-.06 2.43v2.42c0 1.33.02 1.67.05 2.43.04.87.2 1.35.31 1.67.17.42.36.72.68 1.03.31.32.61.51 1.03.68.32.12.8.27 1.67.3.76.04 1.1.05 2.43.06h2.42c1.33 0 1.67-.02 2.43-.05a4.98 4.98 0 0 0 1.67-.31c.42-.17.72-.36 1.03-.68.32-.31.51-.61.68-1.03.12-.32.27-.8.3-1.67.04-.76.05-1.1.06-2.43V7.79c0-1.33-.02-1.67-.05-2.43a4.98 4.98 0 0 0-.31-1.67 2.79 2.79 0 0 0-.68-1.03 2.79 2.79 0 0 0-1.03-.68c-.32-.12-.8-.27-1.67-.3-.76-.04-1.1-.05-2.43-.06H9.54ZM9 4.5a4.5 4.5 0 1 1 0 9 4.5 4.5 0 0 1 0-9Zm0 1.58a2.92 2.92 0 1 0 0 5.84 2.92 2.92 0 0 0 0-5.84Zm4.82-2.87a.96.96 0 1 1 0 1.93.96.96 0 0 1 0-1.93Z" id="a"/></defs><g fill="none" fill-rule="evenodd"><mask id="b" fill="#fff"><use xlink:href="#a"/></mask><use fill="#071C31" xlink:href="#a"/><g mask="url(#b)" fill="#071C31"><path d="M0 0h24v24H0z"/></g></g></svg>