<?xml version="1.0" encoding="UTF-8"?>
<svg width="12px" height="14px" viewBox="0 0 12 14" version="1.1" xmlns="http://www.w3.org/2000/svg" xmlns:xlink="http://www.w3.org/1999/xlink">
    <title>1722C53C-37AF-4959-A7C7-5EFB715AA803@1x</title>
    <defs>
        <path d="M6,0.5 C9.03756612,0.5 11.5,2.96243388 11.5,6 C11.5,7.86266769 10.027281,10.3542361 7.10698612,13.5479375 L7.10698612,13.5479375 L7.06066064,13.5963809 L7.01221726,13.6427063 C6.40083625,14.2017477 5.45202148,14.159318 4.89141431,13.5462165 L4.89141431,13.5462165 L4.61047993,13.2360868 C1.87867033,10.1921643 0.5,7.80282912 0.5,6 C0.5,2.96243388 2.96243388,0.5 6,0.5 Z M6,1.5 C3.51471863,1.5 1.5,3.51471863 1.5,6 C1.5,7.4831887 2.77639364,9.69527101 5.35315683,12.5664409 L5.35315683,12.5664409 L5.63097024,12.8731254 C5.81732344,13.0769257 6.13360538,13.0910694 6.33740571,12.9047162 C6.34840133,12.8946619 6.35894206,12.8841212 6.36899636,12.8731256 L6.36899636,12.8731256 L6.64058976,12.5733796 C9.22110044,9.69862166 10.5,7.48544501 10.5,6 C10.5,3.51471863 8.48528137,1.5 6,1.5 Z M6,3.5 C7.38071187,3.5 8.5,4.61928813 8.5,6 C8.5,7.38071187 7.38071187,8.5 6,8.5 C4.61928813,8.5 3.5,7.38071187 3.5,6 C3.5,4.61928813 4.61928813,3.5 6,3.5 Z M6,4.5 C5.17157288,4.5 4.5,5.17157288 4.5,6 C4.5,6.82842712 5.17157288,7.5 6,7.5 C6.82842712,7.5 7.5,6.82842712 7.5,6 C7.5,5.17157288 6.82842712,4.5 6,4.5 Z" id="path-1"></path>
    </defs>
    <g id="Lizenzen-&amp;-Assets-✅" stroke="none" stroke-width="1" fill="none" fill-rule="evenodd">
        <g id="Icons" transform="translate(-666.000000, -611.000000)">
            <g id="Group" transform="translate(663.000000, 609.000000)">
                <g id="Fills/Grey-900" transform="translate(3.000000, 2.000000)">
                    <mask id="mask-2" fill="white">
                        <use xlink:href="#path-1"></use>
                    </mask>
                    <use id="Mask" fill="#979797" fill-rule="nonzero" xlink:href="#path-1"></use>
                    <g id="Group" mask="url(#mask-2)">
                        <g transform="translate(-3.000000, -2.000000)" id="Fills/Grey-900">
                            <rect id="Rectangle" fill="#071C31" x="0" y="0" width="18" height="18"></rect>
                        </g>
                    </g>
                </g>
            </g>
        </g>
    </g>
</svg>