<?xml version="1.0" encoding="UTF-8"?><svg width="12" height="14" xmlns="http://www.w3.org/2000/svg" xmlns:xlink="http://www.w3.org/1999/xlink"><defs><path d="M6 .5A5.5 5.5 0 0 1 11.5 6c0 1.86-1.47 4.35-4.4 7.55l-.04.05-.05.04a1.5 1.5 0 0 1-2.12-.1l-.28-.3C1.88 10.19.5 7.8.5 6A5.5 5.5 0 0 1 6 .5Zm0 1A4.5 4.5 0 0 0 1.5 6c0 1.48 1.28 3.7 3.85 6.57l.28.3a.5.5 0 0 0 .74 0l.27-.3C9.22 9.7 10.5 7.5 10.5 6A4.5 4.5 0 0 0 6 1.5Zm0 2a2.5 2.5 0 1 1 0 5 2.5 2.5 0 0 1 0-5Zm0 1a1.5 1.5 0 1 0 0 3 1.5 1.5 0 0 0 0-3Z" id="a"/></defs><g fill="none" fill-rule="evenodd"><mask id="b" fill="#fff"><use xlink:href="#a"/></mask><use fill="#979797" fill-rule="nonzero" xlink:href="#a"/><g mask="url(#b)"><path fill="#071C31" d="M-3-2h18v18H-3z"/></g></g></svg>