<?xml version="1.0" encoding="UTF-8"?>
<svg width="14px" height="14px" viewBox="0 0 14 14" version="1.1" xmlns="http://www.w3.org/2000/svg" xmlns:xlink="http://www.w3.org/1999/xlink">
    <title>92F9EBFB-C231-4B1C-8E23-8B6ABF090848@1x</title>
    <defs>
        <path d="M9,2 C9.55228475,2 10,2.44771525 10,3 L10,8 L15,8 C15.5522847,8 16,8.44771525 16,9 C16,9.55228475 15.5522847,10 15,10 L10,10 L10,15 C10,15.5522847 9.55228475,16 9,16 C8.44771525,16 8,15.5522847 8,15 L8,10 L3,10 C2.44771525,10 2,9.55228475 2,9 C2,8.44771525 2.44771525,8 3,8 L8,8 L8,8 L8,3 C8,2.44771525 8.44771525,2 9,2 Z" id="path-1"></path>
    </defs>
    <g id="Lizenzen-&amp;-Assets-✅" stroke="none" stroke-width="1" fill="none" fill-rule="evenodd">
        <g id="Icons" transform="translate(-413.000000, -611.000000)">
            <g id="Group" transform="translate(411.000000, 609.000000)">
                <mask id="mask-2" fill="white">
                    <use xlink:href="#path-1"></use>
                </mask>
                <use id="Combined-Shape" fill="#000000" transform="translate(9.000000, 9.000000) scale(1, -1) translate(-9.000000, -9.000000) " xlink:href="#path-1"></use>
                <g mask="url(#mask-2)" fill="#071C31" id="Fills/Grey-900">
                    <g>
                        <rect id="Rectangle" x="0" y="0" width="18" height="18"></rect>
                    </g>
                </g>
            </g>
        </g>
    </g>
</svg>