<?xml version="1.0" encoding="UTF-8"?><svg width="14" height="14" xmlns="http://www.w3.org/2000/svg" xmlns:xlink="http://www.w3.org/1999/xlink"><defs><path d="M9 2a1 1 0 0 1 1 1v5h5a1 1 0 0 1 0 2h-5v5a1 1 0 0 1-2 0v-5H3a1 1 0 1 1 0-2h5V3a1 1 0 0 1 1-1Z" id="a"/></defs><g transform="translate(-2 -2)" fill="none" fill-rule="evenodd"><mask id="b" fill="#fff"><use xlink:href="#a"/></mask><use fill="#000" transform="matrix(1 0 0 -1 0 18)" xlink:href="#a"/><g mask="url(#b)" fill="#071C31"><path d="M0 0h18v18H0z"/></g></g></svg>