<?xml version="1.0" encoding="UTF-8"?><svg width="18" height="19" xmlns="http://www.w3.org/2000/svg" xmlns:xlink="http://www.w3.org/1999/xlink"><defs><path d="M9 0a9 9 0 0 0-3.28 17.37c-.08-.71-.15-1.8.03-2.58l1.06-4.47s-.27-.54-.27-1.33c0-1.26.73-2.19 1.63-2.19.77 0 1.14.58 1.14 1.27 0 .77-.49 1.92-.75 3-.21.9.45 1.62 1.34 1.62 1.6 0 2.83-1.68 2.83-4.11 0-2.16-1.55-3.66-3.77-3.66a3.9 3.9 0 0 0-4.07 3.9c0 .77.3 1.6.67 2.05.07.1.08.17.06.26l-.25 1.02c-.04.17-.14.2-.3.12-1.13-.52-1.84-2.16-1.84-3.48 0-2.84 2.06-5.44 5.96-5.44 3.12 0 5.55 2.22 5.55 5.2 0 3.1-1.96 5.59-4.67 5.59-.91 0-1.77-.48-2.06-1.04l-.57 2.14c-.2.78-.75 1.76-1.12 2.36A9 9 0 1 0 9 0Z" id="a-pintesrest"/></defs><g transform="translate(0 .5)" fill="none" fill-rule="evenodd"><mask id="b-pintesrest" fill="#fff"><use xlink:href="#a-pintesrest"/></mask><use fill="#071C31" xlink:href="#a-pintesrest"/><g mask="url(#b-pintesrest)" fill="currentColor"><path d="M0 0h18v18H0z"/></g></g></svg>
