<?xml version="1.0" encoding="UTF-8"?><svg width="22" height="23" xmlns="http://www.w3.org/2000/svg" xmlns:xlink="http://www.w3.org/1999/xlink"><defs><path d="M11.96 13c5.28 0 9.82 3.67 11.01 8.77a1 1 0 1 1-1.94.46A9.33 9.33 0 0 0 11.96 15a9.33 9.33 0 0 0-9 6.97 1 1 0 0 1-1.93-.51A11.33 11.33 0 0 1 11.96 13ZM12.02.25c3 0 5.5 2.5 5.5 5.5s-2.5 5.5-5.5 5.5-5.5-2.5-5.5-5.5 2.5-5.5 5.5-5.5Zm0 2c-1.9 0-3.5 1.6-3.5 3.5s1.6 3.5 3.5 3.5 3.5-1.6 3.5-3.5-1.6-3.5-3.5-3.5Z" id="a-profile"/></defs><g transform="translate(-1)" fill="none" fill-rule="evenodd"><mask id="b-profile" fill="#fff"><use xlink:href="#a-profile"/></mask><use fill="#000" fill-rule="nonzero" xlink:href="#a-profile"/><g mask="url(#b-profile)" fill="currentColor"><path d="M0 0h24v24H0z"/></g></g></svg>
