<?xml version="1.0" encoding="UTF-8"?><svg width="35px" height="29px" viewBox="0 0 35 29" version="1.1" xmlns="http://www.w3.org/2000/svg" xmlns:xlink="http://www.w3.org/1999/xlink"><defs><path d="M17.2027503,11.2960942 C17.5915068,10.90381 18.2246653,10.9009503 18.6169495,11.2897068 L18.6169495,11.2897068 L22.5299929,15.1675622 C22.922277,15.5563187 22.9251367,16.1894772 22.5363803,16.5817614 C22.1476238,16.9740455 21.5144652,16.9769052 21.1221811,16.5881487 L21.1221811,16.5881487 L18.913,14.399 L18.9130435,27.6513779 C18.9130435,28.2036626 18.4653283,28.6513779 17.9130435,28.6513779 C17.3607588,28.6513779 16.9130435,28.2036626 16.9130435,27.6513779 L16.913,14.433 L14.703906,16.6233368 C14.3116219,17.0120933 13.6784633,17.0092336 13.2897068,16.6169495 C12.9009503,16.2246653 12.90381,15.5915068 13.2960942,15.2027503 L17.0725344,11.4578275 C17.109506,11.400639 17.1529097,11.346387 17.2027503,11.2960942 Z" id="ic-upload"/></defs><g id="Custom-Products-upload" stroke="none" stroke-width="1" fill="none" fill-rule="evenodd"><g id="Custom-Products---Product-Page---Accordion-open" transform="translate(-1334.000000, -3285.000000)"><g id="Liste" transform="translate(1305.000000, 729.000000)"><g id="Upload" transform="translate(2.500000, 2460.000000)"><g id="Group-5" transform="translate(0.000000, 69.000000)"><g id="Group-2" transform="translate(27.000000, 27.000000)"><path d="M34,16.7208589 C34,20.1779141 31.1666667,23 27.6958333,23 L6.30416667,23 C2.83333333,23 0,20.1779141 0,16.7208589 C0,14.3220859 1.41666667,12.0644172 3.6125,11.0766871 C3.54166667,10.7239264 3.54166667,10.3711656 3.54166667,10.0184049 C3.54166667,6.63190184 6.30416667,3.8803681 9.70416667,3.8803681 C11.1916667,3.8803681 12.5375,4.37423313 13.6708333,5.29141104 C14.875,2.18711656 17.9208333,0 21.3916667,0 C25.925,0 29.6083333,3.66871166 29.6083333,8.18404908 C29.6083333,9.03067485 29.4666667,9.87730061 29.2541667,10.6533742 C31.9458333,11.2883436 34,13.7576687 34,16.7208589 Z" id="Path" style="fill:#CDD2D6" fill="#CDD2D6"/><mask id="mask-2" fill="white"><use xlink:href="#ic-upload"/></mask><use id="Upload-Icon" style="fill:#071C31" fill="#071C31" xlink:href="#ic-upload"/></g></g></g></g></g></g></svg>
